<svg xmlns="http://www.w3.org/2000/svg" version="1.0" preserveAspectRatio="xMidYMid meet" viewBox="156.3 79 261.7 244.1">

<g transform="translate(0.000000,416.000000) scale(0.100000,-0.100000)" fill="#000000" stroke="none">
<path d="M1576 3308 c-3 -35 -7 -584 -9 -1220 l-4 -1158 108 0 c60 0 108 3 108 8 -1 4 -1 505 0 1115 l1 1107 296 -2 296 -3 54 -95 c30 -52 72 -131 94 -175 22 -44 69 -129 104 -190 35 -60 94 -168 131 -240 37 -71 72 -136 77 -142 19 -24 37 -13 63 40 14 28 40 75 57 102 17 28 50 79 73 115 22 36 45 76 51 90 24 56 57 120 105 205 28 50 71 134 96 187 25 53 53 100 62 103 9 4 143 3 298 -1 l281 -7 6 -56 c3 -31 8 -281 11 -556 3 -275 8 -516 10 -535 2 -19 6 -240 10 -490 3 -250 8 -481 11 -512 l6 -58 104 0 104 0 0 38 c0 327 -49 2364 -56 2372 -13 12 -185 19 -531 19 l-382 1 -20 -28 c-18 -26 -88 -158 -265 -504 -33 -65 -63 -118 -66 -118 -7 1 -73 116 -145 255 -32 61 -72 135 -90 165 -18 30 -54 94 -81 142 l-49 88 -457 0 -456 0 -6 -62z"/>
<path d="M3563 2378 c4 -310 7 -760 7 -1000 l0 -438 110 0 109 0 -5 728 c-2 400 -7 850 -10 1000 l-6 272 -106 0 -105 0 6 -562z"/>
<path d="M1956 2889 c-3 -13 -7 -459 -8 -992 l-3 -967 102 0 102 0 3 117 c2 65 5 508 6 986 l3 867 -48 0 c-26 0 -71 3 -100 6 -49 6 -52 5 -57 -17z"/>
<path d="M3319 2407 c-116 -70 -279 -198 -391 -306 l-57 -55 -113 86 c-62 47 -122 90 -133 96 -11 6 -51 34 -90 62 -38 29 -92 63 -120 76 -46 22 -50 22 -60 6 -6 -11 -11 -270 -13 -729 l-4 -713 106 0 106 0 1 368 c1 202 4 445 8 540 l6 172 70 -51 c39 -28 82 -62 98 -77 l27 -26 0 -425 c0 -234 3 -443 6 -464 l7 -38 101 3 101 3 -3 455 -3 455 90 88 c49 48 92 87 95 87 3 0 7 -244 8 -542 l3 -543 105 0 105 0 2 695 c1 673 -1 800 -15 800 -4 -1 -23 -11 -43 -23z"/>
</g>
</svg>